<svg xmlns="http://www.w3.org/2000/svg" width="1277.989" height="733.481" viewBox="0 0 1277.989 733.481">
  <g id="Group_12422" data-name="Group 12422" transform="translate(-63.551 -122.954)">
    <g id="Group_12417" data-name="Group 12417" transform="matrix(0.899, 0.438, -0.438, 0.899, 242.257, -90.943)">
      <g id="Group_16" data-name="Group 16" transform="translate(-3 21)">
        <path id="Polygon_1" data-name="Polygon 1" d="M1.5,0,3,7H0Z" transform="translate(326 236)" fill="#33324d"/>
        <path id="Polygon_2" data-name="Polygon 2" d="M1.5,0,3,7H0Z" transform="translate(329 250) rotate(180)" fill="#33324d"/>
        <path id="Polygon_3" data-name="Polygon 3" d="M1.5,0,3,7H0Z" transform="matrix(-0.035, 0.999, -0.999, -0.035, 335.05, 241.623)" fill="#33324d"/>
        <path id="Polygon_4" data-name="Polygon 4" d="M1.5,0,3,7H0Z" transform="matrix(-0.035, -0.999, 0.999, -0.035, 320.504, 244.621)" fill="#33324d"/>
      </g>
      <g id="Group_24" data-name="Group 24" transform="translate(-155.669 501)">
        <path id="Polygon_1-2" data-name="Polygon 1" d="M1.5,0,3,7H0Z" transform="translate(326 236)" fill="#33324d"/>
        <path id="Polygon_2-2" data-name="Polygon 2" d="M1.5,0,3,7H0Z" transform="translate(329 250) rotate(180)" fill="#33324d"/>
        <path id="Polygon_3-2" data-name="Polygon 3" d="M1.5,0,3,7H0Z" transform="matrix(-0.035, 0.999, -0.999, -0.035, 335.05, 241.623)" fill="#33324d"/>
        <path id="Polygon_4-2" data-name="Polygon 4" d="M1.5,0,3,7H0Z" transform="matrix(-0.035, -0.999, 0.999, -0.035, 320.504, 244.621)" fill="#33324d"/>
      </g>
      <g id="Group_17" data-name="Group 17" transform="translate(221 -82.199)">
        <path id="Polygon_1-3" data-name="Polygon 1" d="M1.247,0,2.493,4.986H0Z" transform="translate(324.888 236.199)" fill="#33324d"/>
        <path id="Polygon_2-3" data-name="Polygon 2" d="M1.247,0,2.493,6.233H0Z" transform="translate(327.381 247.418) rotate(180)" fill="#33324d"/>
        <path id="Polygon_3-3" data-name="Polygon 3" d="M1.229,0,2.457,5.734H0Z" transform="matrix(-0.035, 0.999, -0.999, -0.035, 332.4, 240.557)" fill="#33324d"/>
        <path id="Polygon_4-3" data-name="Polygon 4" d="M1.229,0,2.457,5.733H0Z" transform="matrix(-0.035, -0.999, 0.999, -0.035, 320.485, 243.012)" fill="#33324d"/>
      </g>
      <g id="Group_18" data-name="Group 18" transform="translate(211.374 63.255)">
        <path id="Polygon_1-4" data-name="Polygon 1" d="M1,0,2,4H0Z" transform="translate(324 236.199)" fill="#33324d"/>
        <path id="Polygon_2-4" data-name="Polygon 2" d="M1,0,2,5H0Z" transform="translate(326 245.199) rotate(180)" fill="#33324d"/>
        <path id="Polygon_3-4" data-name="Polygon 3" d="M.986,0l.986,4.6H0Z" transform="matrix(-0.035, 0.999, -0.999, -0.035, 330.026, 239.695)" fill="#33324d"/>
        <path id="Polygon_4-4" data-name="Polygon 4" d="M.986,0l.986,4.6H0Z" transform="matrix(-0.035, -0.999, 0.999, -0.035, 320.469, 241.665)" fill="#33324d"/>
      </g>
      <g id="Group_19" data-name="Group 19" transform="translate(-90.626 -111.745)">
        <path id="Polygon_1-5" data-name="Polygon 1" d="M.831,0l.831,3.324H0Z" transform="translate(323.392 236.199)" fill="#33324d"/>
        <path id="Polygon_2-5" data-name="Polygon 2" d="M.831,0l.831,4.155H0Z" transform="translate(325.054 243.678) rotate(180)" fill="#33324d"/>
        <path id="Polygon_3-5" data-name="Polygon 3" d="M.819,0l.819,3.822H0Z" transform="matrix(-0.035, 0.999, -0.999, -0.035, 328.4, 239.104)" fill="#33324d"/>
        <path id="Polygon_4-5" data-name="Polygon 4" d="M.819,0l.819,3.822H0Z" transform="matrix(-0.035, -0.999, 0.999, -0.035, 320.457, 240.741)" fill="#33324d"/>
      </g>
      <g id="Group_26" data-name="Group 26" transform="translate(11.65 590.255)">
        <path id="Polygon_1-6" data-name="Polygon 1" d="M.831,0l.831,3.324H0Z" transform="translate(323.392 236.199)" fill="#33324d"/>
        <path id="Polygon_2-6" data-name="Polygon 2" d="M.831,0l.831,4.155H0Z" transform="translate(325.054 243.678) rotate(180)" fill="#33324d"/>
        <path id="Polygon_3-6" data-name="Polygon 3" d="M.819,0l.819,3.822H0Z" transform="matrix(-0.035, 0.999, -0.999, -0.035, 328.4, 239.104)" fill="#33324d"/>
        <path id="Polygon_4-6" data-name="Polygon 4" d="M.819,0l.819,3.822H0Z" transform="matrix(-0.035, -0.999, 0.999, -0.035, 320.457, 240.741)" fill="#33324d"/>
      </g>
      <g id="Group_20" data-name="Group 20" transform="translate(-237.626 8.301)">
        <path id="Polygon_1-7" data-name="Polygon 1" d="M1,0,2,4H0Z" transform="translate(324 236.199)" fill="#33324d"/>
        <path id="Polygon_2-7" data-name="Polygon 2" d="M1,0,2,5H0Z" transform="translate(326 245.199) rotate(180)" fill="#33324d"/>
        <path id="Polygon_3-7" data-name="Polygon 3" d="M.986,0l.986,4.6H0Z" transform="matrix(-0.035, 0.999, -0.999, -0.035, 330.026, 239.695)" fill="#33324d"/>
        <path id="Polygon_4-7" data-name="Polygon 4" d="M.986,0l.986,4.6H0Z" transform="matrix(-0.035, -0.999, 0.999, -0.035, 320.469, 241.665)" fill="#33324d"/>
      </g>
      <g id="Group_25" data-name="Group 25" transform="translate(211.374 476.301)">
        <path id="Polygon_1-8" data-name="Polygon 1" d="M1,0,2,4H0Z" transform="translate(324 236.199)" fill="#33324d"/>
        <path id="Polygon_2-8" data-name="Polygon 2" d="M1,0,2,5H0Z" transform="translate(326 245.199) rotate(180)" fill="#33324d"/>
        <path id="Polygon_3-8" data-name="Polygon 3" d="M.986,0l.986,4.6H0Z" transform="matrix(-0.035, 0.999, -0.999, -0.035, 330.026, 239.695)" fill="#33324d"/>
        <path id="Polygon_4-8" data-name="Polygon 4" d="M.986,0l.986,4.6H0Z" transform="matrix(-0.035, -0.999, 0.999, -0.035, 320.469, 241.665)" fill="#33324d"/>
      </g>
      <g id="Group_22" data-name="Group 22" transform="translate(150.374 316.301)">
        <path id="Polygon_1-9" data-name="Polygon 1" d="M.623,0l.623,2.493H0Z" transform="translate(322.644 236.199)" fill="#33324d"/>
        <path id="Polygon_2-9" data-name="Polygon 2" d="M.623,0l.623,3.116H0Z" transform="translate(323.89 241.809) rotate(180)" fill="#33324d"/>
        <path id="Polygon_3-9" data-name="Polygon 3" d="M.614,0l.614,2.867H0Z" transform="matrix(-0.035, 0.999, -0.999, -0.035, 326.4, 238.378)" fill="#33324d"/>
        <path id="Polygon_4-9" data-name="Polygon 4" d="M.614,0l.614,2.867H0Z" transform="matrix(-0.035, -0.999, 0.999, -0.035, 320.443, 239.606)" fill="#33324d"/>
      </g>
      <g id="Group_23" data-name="Group 23" transform="translate(-207.813 303.301)">
        <path id="Polygon_1-10" data-name="Polygon 1" d="M1,0,2,4H0Z" transform="translate(324 236.199)" fill="#33324d"/>
        <path id="Polygon_2-10" data-name="Polygon 2" d="M1,0,2,5H0Z" transform="translate(326 245.199) rotate(180)" fill="#33324d"/>
        <path id="Polygon_3-10" data-name="Polygon 3" d="M.986,0l.986,4.6H0Z" transform="matrix(-0.035, 0.999, -0.999, -0.035, 330.026, 239.695)" fill="#33324d"/>
        <path id="Polygon_4-10" data-name="Polygon 4" d="M.986,0l.986,4.6H0Z" transform="matrix(-0.035, -0.999, 0.999, -0.035, 320.469, 241.665)" fill="#33324d"/>
      </g>
    </g>
    <g id="Group_12418" data-name="Group 12418" transform="matrix(-0.899, -0.438, 0.438, -0.899, 1142.996, 922.187)">
      <g id="Group_16-2" data-name="Group 16" transform="translate(234.626 132.546)">
        <path id="Polygon_1-11" data-name="Polygon 1" d="M1.5,0,3,7H0Z" transform="translate(5.6 0)" fill="#33324d"/>
        <path id="Polygon_2-11" data-name="Polygon 2" d="M1.5,0,3,7H0Z" transform="translate(8.6 14) rotate(180)" fill="#33324d"/>
        <path id="Polygon_3-11" data-name="Polygon 3" d="M1.5,0,3,7H0Z" transform="matrix(-0.035, 0.999, -0.999, -0.035, 14.651, 5.623)" fill="#33324d"/>
        <path id="Polygon_4-11" data-name="Polygon 4" d="M1.5,0,3,7H0Z" transform="matrix(-0.035, -0.999, 0.999, -0.035, 0.105, 8.621)" fill="#33324d"/>
      </g>
      <g id="Group_24-2" data-name="Group 24" transform="translate(81.957 612.546)">
        <path id="Polygon_1-12" data-name="Polygon 1" d="M1.5,0,3,7H0Z" transform="translate(5.6 0)" fill="#33324d"/>
        <path id="Polygon_2-12" data-name="Polygon 2" d="M1.5,0,3,7H0Z" transform="translate(8.6 14) rotate(180)" fill="#33324d"/>
        <path id="Polygon_3-12" data-name="Polygon 3" d="M1.5,0,3,7H0Z" transform="matrix(-0.035, 0.999, -0.999, -0.035, 14.651, 5.623)" fill="#33324d"/>
        <path id="Polygon_4-12" data-name="Polygon 4" d="M1.5,0,3,7H0Z" transform="matrix(-0.035, -0.999, 0.999, -0.035, 0.105, 8.621)" fill="#33324d"/>
      </g>
      <g id="Group_17-2" data-name="Group 17" transform="translate(458.626 29.546)">
        <path id="Polygon_1-13" data-name="Polygon 1" d="M1.247,0,2.493,4.986H0Z" transform="translate(4.488 0)" fill="#33324d"/>
        <path id="Polygon_2-13" data-name="Polygon 2" d="M1.247,0,2.493,6.233H0Z" transform="translate(6.981 11.219) rotate(180)" fill="#33324d"/>
        <path id="Polygon_3-13" data-name="Polygon 3" d="M1.229,0,2.457,5.734H0Z" transform="matrix(-0.035, 0.999, -0.999, -0.035, 12, 4.357)" fill="#33324d"/>
        <path id="Polygon_4-13" data-name="Polygon 4" d="M1.229,0,2.457,5.733H0Z" transform="matrix(-0.035, -0.999, 0.999, -0.035, 0.086, 6.813)" fill="#33324d"/>
      </g>
      <g id="Group_18-2" data-name="Group 18" transform="translate(449 175)">
        <path id="Polygon_1-14" data-name="Polygon 1" d="M1,0,2,4H0Z" transform="translate(3.6 0)" fill="#33324d"/>
        <path id="Polygon_2-14" data-name="Polygon 2" d="M1,0,2,5H0Z" transform="translate(5.6 9) rotate(180)" fill="#33324d"/>
        <path id="Polygon_3-14" data-name="Polygon 3" d="M.986,0l.986,4.6H0Z" transform="matrix(-0.035, 0.999, -0.999, -0.035, 9.626, 3.496)" fill="#33324d"/>
        <path id="Polygon_4-14" data-name="Polygon 4" d="M.986,0l.986,4.6H0Z" transform="matrix(-0.035, -0.999, 0.999, -0.035, 0.069, 5.465)" fill="#33324d"/>
      </g>
      <g id="Group_19-2" data-name="Group 19" transform="translate(147 0)">
        <path id="Polygon_1-15" data-name="Polygon 1" d="M.831,0l.831,3.324H0Z" transform="translate(2.992 0)" fill="#33324d"/>
        <path id="Polygon_2-15" data-name="Polygon 2" d="M.831,0l.831,4.155H0Z" transform="translate(4.654 7.479) rotate(180)" fill="#33324d"/>
        <path id="Polygon_3-15" data-name="Polygon 3" d="M.819,0l.819,3.822H0Z" transform="matrix(-0.035, 0.999, -0.999, -0.035, 8, 2.905)" fill="#33324d"/>
        <path id="Polygon_4-15" data-name="Polygon 4" d="M.819,0l.819,3.822H0Z" transform="matrix(-0.035, -0.999, 0.999, -0.035, 0.057, 4.542)" fill="#33324d"/>
      </g>
      <g id="Group_26-2" data-name="Group 26" transform="translate(249.277 702)">
        <path id="Polygon_1-16" data-name="Polygon 1" d="M.831,0l.831,3.324H0Z" transform="translate(2.992 0)" fill="#33324d"/>
        <path id="Polygon_2-16" data-name="Polygon 2" d="M.831,0l.831,4.155H0Z" transform="translate(4.654 7.479) rotate(180)" fill="#33324d"/>
        <path id="Polygon_3-16" data-name="Polygon 3" d="M.819,0l.819,3.822H0Z" transform="matrix(-0.035, 0.999, -0.999, -0.035, 8, 2.905)" fill="#33324d"/>
        <path id="Polygon_4-16" data-name="Polygon 4" d="M.819,0l.819,3.822H0Z" transform="matrix(-0.035, -0.999, 0.999, -0.035, 0.057, 4.542)" fill="#33324d"/>
      </g>
      <g id="Group_20-2" data-name="Group 20" transform="translate(0 120.045)">
        <path id="Polygon_1-17" data-name="Polygon 1" d="M1,0,2,4H0Z" transform="translate(3.6 0)" fill="#33324d"/>
        <path id="Polygon_2-17" data-name="Polygon 2" d="M1,0,2,5H0Z" transform="translate(5.6 9) rotate(180)" fill="#33324d"/>
        <path id="Polygon_3-17" data-name="Polygon 3" d="M.986,0l.986,4.6H0Z" transform="matrix(-0.035, 0.999, -0.999, -0.035, 9.626, 3.496)" fill="#33324d"/>
        <path id="Polygon_4-17" data-name="Polygon 4" d="M.986,0l.986,4.6H0Z" transform="matrix(-0.035, -0.999, 0.999, -0.035, 0.069, 5.465)" fill="#33324d"/>
      </g>
      <g id="Group_25-2" data-name="Group 25" transform="translate(449 588.046)">
        <path id="Polygon_1-18" data-name="Polygon 1" d="M1,0,2,4H0Z" transform="translate(3.6 0)" fill="#33324d"/>
        <path id="Polygon_2-18" data-name="Polygon 2" d="M1,0,2,5H0Z" transform="translate(5.6 9) rotate(180)" fill="#33324d"/>
        <path id="Polygon_3-18" data-name="Polygon 3" d="M.986,0l.986,4.6H0Z" transform="matrix(-0.035, 0.999, -0.999, -0.035, 9.626, 3.496)" fill="#33324d"/>
        <path id="Polygon_4-18" data-name="Polygon 4" d="M.986,0l.986,4.6H0Z" transform="matrix(-0.035, -0.999, 0.999, -0.035, 0.069, 5.465)" fill="#33324d"/>
      </g>
      <g id="Group_22-2" data-name="Group 22" transform="translate(388 428.046)">
        <path id="Polygon_1-19" data-name="Polygon 1" d="M.623,0l.623,2.493H0Z" transform="translate(2.244 0)" fill="#33324d"/>
        <path id="Polygon_2-19" data-name="Polygon 2" d="M.623,0l.623,3.116H0Z" transform="translate(3.491 5.609) rotate(180)" fill="#33324d"/>
        <path id="Polygon_3-19" data-name="Polygon 3" d="M.614,0l.614,2.867H0Z" transform="matrix(-0.035, 0.999, -0.999, -0.035, 6, 2.179)" fill="#33324d"/>
        <path id="Polygon_4-19" data-name="Polygon 4" d="M.614,0l.614,2.867H0Z" transform="matrix(-0.035, -0.999, 0.999, -0.035, 0.043, 3.407)" fill="#33324d"/>
      </g>
      <g id="Group_23-2" data-name="Group 23" transform="translate(29.813 415.045)">
        <path id="Polygon_1-20" data-name="Polygon 1" d="M1,0,2,4H0Z" transform="translate(3.6 0)" fill="#33324d"/>
        <path id="Polygon_2-20" data-name="Polygon 2" d="M1,0,2,5H0Z" transform="translate(5.6 9) rotate(180)" fill="#33324d"/>
        <path id="Polygon_3-20" data-name="Polygon 3" d="M.986,0l.986,4.6H0Z" transform="matrix(-0.035, 0.999, -0.999, -0.035, 9.626, 3.496)" fill="#33324d"/>
        <path id="Polygon_4-20" data-name="Polygon 4" d="M.986,0l.986,4.6H0Z" transform="matrix(-0.035, -0.999, 0.999, -0.035, 0.069, 5.465)" fill="#33324d"/>
      </g>
    </g>
  </g>
</svg>
